<?xml version="1.0" encoding="iso-8859-1"?>
<!-- Generator: Adobe Illustrator 16.0.0, SVG Export Plug-In . SVG Version: 6.00 Build 0)  -->
<!DOCTYPE svg PUBLIC "-//W3C//DTD SVG 1.1//EN" "http://www.w3.org/Graphics/SVG/1.1/DTD/svg11.dtd">
<svg version="1.1" id="Capa_1"
	xmlns="http://www.w3.org/2000/svg"
	xmlns:xlink="http://www.w3.org/1999/xlink" x="0px" y="0px" fill="white" width="31.953px" height="31.954px" viewBox="0 0 31.953 31.954" style="enable-background:new 0 0 31.953 31.954;" xml:space="preserve">
	<g>
		<path d="M29.373,0.297C29.261,0.29,21.47,0.378,21.47,0.378c-1.389,0.017-2.5,1.373-2.481,2.763
		c0.017,1.377,1.141,2.698,2.515,2.698c0.01,0,0.021,0,0.033,0l1.452-0.236l-2.646,2.542c-2.153-1.501-4.704-2.371-7.383-2.371
		c-3.463,0-6.718,1.322-9.167,3.771c-5.055,5.055-5.055,13.267,0,18.322c2.449,2.448,5.704,3.79,9.167,3.79s6.717-1.354,9.166-3.801
		c4.396-4.396,5.093-11.186,1.848-16.207l2.961-2.83v1.756c0,1.391,1.121,2.517,2.51,2.517c1.388,0,2.511-1.126,2.511-2.517V2.79
		C31.952,2.119,31.845,0.449,29.373,0.297z M18.566,24.294c-1.496,1.498-3.488,2.325-5.608,2.325s-4.112-0.827-5.609-2.325
		c-3.095-3.092-3.095-8.126,0-11.22c1.497-1.498,3.489-2.325,5.609-2.325s4.112,0.827,5.608,2.325
		C21.661,16.168,21.661,21.203,18.566,24.294z"/>
	</g>
	<g>
	</g>
	<g>
	</g>
	<g>
	</g>
	<g>
	</g>
	<g>
	</g>
	<g>
	</g>
	<g>
	</g>
	<g>
	</g>
	<g>
	</g>
	<g>
	</g>
	<g>
	</g>
	<g>
	</g>
	<g>
	</g>
	<g>
	</g>
	<g>
	</g>
</svg>
