<?xml version="1.0" encoding="iso-8859-1"?>
<!-- Generator: Adobe Illustrator 18.0.0, SVG Export Plug-In . SVG Version: 6.00 Build 0)  -->
<!DOCTYPE svg PUBLIC "-//W3C//DTD SVG 1.1//EN" "http://www.w3.org/Graphics/SVG/1.1/DTD/svg11.dtd">
<svg version="1.1" id="Capa_1"
	xmlns="http://www.w3.org/2000/svg"
	xmlns:xlink="http://www.w3.org/1999/xlink" x="0px" y="0px" fill="white" viewBox="0 0 488.11 488.11" style="enable-background:new 0 0 488.11 488.11;" xml:space="preserve">
	<g>
		<path d="M186.387,84.652c-26.352,0-51.126,10.262-69.759,28.894c-18.634,18.633-28.896,43.407-28.896,69.758
		c0,26.351,10.262,51.125,28.895,69.758c18.633,18.633,43.406,28.895,69.757,28.895c26.352,0,51.125-10.262,69.758-28.895
		c18.634-18.633,28.895-43.407,28.896-69.758c0-26.351-10.262-51.125-28.895-69.759C237.511,94.913,212.738,84.652,186.387,84.652z
		 M236.343,233.264c-13.345,13.345-31.087,20.694-49.959,20.694c-18.871,0-36.613-7.349-49.958-20.694
		c-13.345-13.345-20.693-31.087-20.693-49.959s7.35-36.614,20.694-49.959s31.087-20.694,49.96-20.694
		c18.871,0,36.613,7.349,49.958,20.693c13.345,13.345,20.693,31.087,20.693,49.96C257.038,202.177,249.689,219.919,236.343,233.264z
		"/>
		<path d="M485.028,312.61c0-7.732-6.269-14-14-14c-7.732,0-14,6.268-14,14l0.001,80.527L342.833,278.94
		c17.495-28.502,26.858-61.348,26.858-95.636c0-48.962-19.067-94.994-53.69-129.615C281.38,19.067,235.347,0,186.384,0
		C137.423,0,91.39,19.067,56.769,53.689C22.148,88.311,3.081,134.342,3.081,183.305s19.067,94.994,53.689,129.616
		c34.622,34.622,80.654,53.69,129.616,53.69c32.047,0,62.838-8.171,89.996-23.523l81.891,81.892l-39.23,39.232
		c-5.468,5.467-5.468,14.332,0,19.799c2.733,2.734,6.316,4.101,9.899,4.101s7.166-1.367,9.899-4.101l39.23-39.231l33.556,33.556
		c2.733,2.734,6.316,4.101,9.899,4.101c3.582,0,7.166-1.367,9.899-4.101c5.468-5.467,5.468-14.332,0-19.799L300.035,327.143
		c5.549-4.401,10.884-9.139,15.967-14.222c3.561-3.56,6.946-7.248,10.174-11.04l130.951,130.952c2.626,2.626,6.188,4.101,9.9,4.101
		c3.714,0,7.275-1.476,9.9-4.103c5.227-5.228,8.104-12.177,8.102-19.563L485.028,312.61z M76.568,293.122
		c-29.333-29.333-45.487-68.333-45.487-109.817s16.154-80.484,45.487-109.817C105.901,44.154,144.901,28,186.384,28
		c41.484,0,80.485,16.154,109.818,45.488c29.334,29.333,45.488,68.333,45.488,109.816c0,41.483-16.154,80.484-45.488,109.818
		c-29.333,29.333-68.334,45.488-109.817,45.488S105.902,322.455,76.568,293.122z"/>
	</g>
	<g>
	</g>
	<g>
	</g>
	<g>
	</g>
	<g>
	</g>
	<g>
	</g>
	<g>
	</g>
	<g>
	</g>
	<g>
	</g>
	<g>
	</g>
	<g>
	</g>
	<g>
	</g>
	<g>
	</g>
	<g>
	</g>
	<g>
	</g>
	<g>
	</g>
</svg>
